<?xml version="1.0" encoding="utf-8"?>
<!-- Generator: Adobe Illustrator 19.2.1, SVG Export Plug-In . SVG Version: 6.00 Build 0)  -->
<svg version="1.1" id="Layer_1" xmlns="http://www.w3.org/2000/svg" xmlns:xlink="http://www.w3.org/1999/xlink" x="0px" y="0px"
	 viewBox="0 0 36 36" enable-background="new 0 0 36 36" xml:space="preserve">
<g>
	<path d="M3.3,0.6C8.7,4.3,13.5,5,17.9,0.1c4.5,4.8,9.3,4.3,14.5,0.6c2.2,11.9,1.4,22.8-7.9,31.1c-6.2,5.5-6.5,5.5-13,0
		C4.7,26.1,2.4,18.2,2.6,9.6C2.7,6.8,3,4.1,3.3,0.6z M29.9,5.8c-4,1.3-7.8,1.1-11.4-1.1c-0.3-0.2-0.8-0.2-1,0C13.9,7,10,7,5.7,5.8
		c0,2.7-0.2,5.2,0,7.7c0.8,7.3,3.7,13.5,9.9,17.9c1.6,1.1,2.9,1.1,4.6,0C27.6,26.5,31.8,15.8,29.9,5.8z"/>
	<path fill="#FFFFFF" d="M29.9,5.8c1.9,10-2.3,20.7-9.7,25.6c-1.7,1.1-3,1.1-4.6,0C9.5,27,6.6,20.8,5.8,13.5c-0.3-2.4,0-4.9,0-7.7
		C10,7,13.9,7,17.5,4.7c0.2-0.2,0.8-0.2,1,0C22.1,6.9,26,7.1,29.9,5.8z"/>
</g>
</svg>
