<?xml version="1.0" encoding="utf-8"?>
<!-- Generator: Adobe Illustrator 19.2.1, SVG Export Plug-In . SVG Version: 6.00 Build 0)  -->
<svg version="1.1" id="Layer_1" xmlns="http://www.w3.org/2000/svg" xmlns:xlink="http://www.w3.org/1999/xlink" x="0px" y="0px"
	 viewBox="0 0 36 36" enable-background="new 0 0 36 36" xml:space="preserve">
<path fill="#010101" d="M28.6,11.7c1.7,0,5,0.8,7.3,3.3c0-5.9-7.6-13.5-17.9-13.5c-8.5,0-15,6-15,13.2c0,3.9,1.4,7,4.3,9.5
	c-1.7,0-5-0.8-7.3-3.3c0,5.9,7.6,13.5,17.9,13.5c8.5,0,14.9-6,14.9-13.2C33,18.2,31.8,14.4,28.6,11.7z M18,31.4
	c-4.5,0-8.7-1.6-11.6-4.4c3.6,1.2,8.9,1.7,12-0.7c-6.4-1.2-12.3-5-12.3-11.6c0-5.5,5.1-10.3,12-10.3c4.5,0,8.7,1.6,11.6,4.4
	c-3.6-1.2-8.9-1.7-12,0.7C24,10.8,30,14.7,30,21.1C29.9,26.7,24.9,31.4,18,31.4z"/>
</svg>
